<svg width="51" height="50" viewBox="0 0 51 50" fill="#323232" xmlns="http://www.w3.org/2000/svg">
<path d="M36.46 50H4.79529C4.11381 50 3.56128 49.4475 3.56128 48.766V10.7685C3.56128 10.087 4.11381 9.53444 4.79529 9.53444H36.4599C37.1414 9.53444 37.6939 10.087 37.6939 10.7685V13.2004H40.8153C41.4968 13.2004 42.0493 13.7529 42.0493 14.4344C42.0493 15.1159 41.4968 15.6684 40.8153 15.6684H37.6939V18.8481H39.2379C39.9194 18.8481 40.472 19.4007 40.472 20.0822C40.472 20.7636 39.9194 21.3162 39.2379 21.3162H37.6939V24.4961H40.8153C41.4968 24.4961 42.0493 25.0486 42.0493 25.7301C42.0493 26.4116 41.4968 26.9641 40.8153 26.9641H37.6939V30.1437H39.2379C39.9194 30.1437 40.472 30.6962 40.472 31.3777C40.472 32.0592 39.9194 32.6117 39.2379 32.6117H37.6939V48.766C37.694 49.4475 37.1415 50 36.46 50ZM6.0293 47.532H35.2259V12.0025H6.0293V47.532ZM26.5343 45.2322C23.3604 45.2322 20.7782 42.6502 20.7782 39.4765C20.7782 36.3028 23.3604 33.7208 26.5343 33.7208C29.7078 33.7208 32.2898 36.3028 32.2898 39.4765C32.2898 42.6502 29.7078 45.2322 26.5343 45.2322ZM26.5343 36.1888C24.7212 36.1888 23.2462 37.6637 23.2462 39.4765C23.2462 41.2893 24.7212 42.7642 26.5343 42.7642C28.347 42.7642 29.8218 41.2893 29.8218 39.4765C29.8218 37.6637 28.347 36.1888 26.5343 36.1888ZM46.9701 40.4656H41.3237C40.6423 40.4656 40.0897 39.913 40.0897 39.2316C40.0897 38.5501 40.6423 37.9975 41.3237 37.9975H45.7361V2.46802H16.5395V6.37167C16.5395 7.05315 15.987 7.60568 15.3055 7.60568C14.624 7.60568 14.0715 7.05315 14.0715 6.37167V1.23401C14.0715 0.552529 14.624 0 15.3055 0H46.97C47.6514 0 48.204 0.552529 48.204 1.23401V39.2316C48.2041 39.913 47.6514 40.4656 46.9701 40.4656ZM17.1072 36.2884H11.0965C10.415 36.2884 9.86245 35.7359 9.86245 35.0544C9.86245 34.3729 10.415 33.8204 11.0965 33.8204H17.1072C17.7887 33.8204 18.3412 34.3729 18.3412 35.0544C18.3412 35.7359 17.7887 36.2884 17.1072 36.2884ZM30.1589 30.8259H11.0965C10.415 30.8259 9.86245 30.2734 9.86245 29.5919C9.86245 28.9104 10.415 28.3579 11.0965 28.3579H30.1589C30.8403 28.3579 31.3929 28.9104 31.3929 29.5919C31.3929 30.2734 30.8403 30.8259 30.1589 30.8259ZM30.1589 25.3634H11.0965C10.415 25.3634 9.86245 24.8109 9.86245 24.1294C9.86245 23.4479 10.415 22.8954 11.0965 22.8954H30.1589C30.8403 22.8954 31.3929 23.4479 31.3929 24.1294C31.3929 24.8109 30.8403 25.3634 30.1589 25.3634ZM17.1072 19.9009H11.0965C10.415 19.9009 9.86245 19.3484 9.86245 18.6669C9.86245 17.9854 10.415 17.4329 11.0965 17.4329H17.1072C17.7887 17.4329 18.3412 17.9854 18.3412 18.6669C18.3412 19.3484 17.7887 19.9009 17.1072 19.9009Z"/>
</svg>
